<?xml version="1.0" standalone="no"?>
<!DOCTYPE svg PUBLIC "-//W3C//DTD SVG 20010904//EN"
 "http://www.w3.org/TR/2001/REC-SVG-20010904/DTD/svg10.dtd">
<svg version="1.0" xmlns="http://www.w3.org/2000/svg"
 width="548.000000pt" height="548.000000pt" viewBox="0 0 548.000000 548.000000"
 preserveAspectRatio="xMidYMid meet">
<metadata>
Created by potrace 1.15, written by Peter Selinger 2001-2017
</metadata>
<g transform="translate(0.000000,548.000000) scale(0.100000,-0.100000)"
fill="#000000" stroke="none">
<path d="M1152 4841 c-39 -24 -133 -392 -152 -596 -6 -60 -15 -149 -20 -196
-6 -47 -10 -113 -10 -146 0 -56 -3 -66 -43 -119 -112 -152 -210 -354 -266
-549 -56 -194 -81 -365 -90 -610 l-6 -180 -80 -6 c-172 -14 -324 -29 -402 -41
l-83 -11 0 -69 0 -69 48 6 c56 6 287 25 425 34 72 4 101 3 109 -6 14 -17 30
-155 19 -166 -5 -5 -80 -15 -168 -22 -87 -8 -198 -19 -248 -25 -49 -6 -111
-14 -137 -17 l-48 -6 0 -68 c0 -87 -26 -83 300 -49 166 18 330 26 345 17 8 -4
15 -16 15 -25 0 -33 79 -251 128 -354 136 -288 387 -525 704 -665 128 -56 320
-110 350 -97 24 9 180 213 176 229 -2 10 -26 25 -58 36 -239 82 -383 213 -494
450 -88 187 -126 397 -126 698 0 303 34 467 137 664 56 105 132 186 213 227
95 48 361 110 620 145 274 36 797 23 1085 -29 280 -49 426 -110 517 -216 88
-103 135 -198 186 -380 27 -94 27 -100 27 -400 -1 -277 -3 -314 -23 -403 -42
-187 -95 -324 -177 -451 -38 -59 -123 -150 -178 -190 -45 -33 -152 -86 -225
-112 -86 -30 -85 -37 25 -164 107 -123 85 -114 208 -88 261 55 539 216 705
409 67 78 166 223 207 303 33 65 117 288 134 354 7 29 18 57 24 62 11 9 174
-2 505 -34 74 -7 138 -11 143 -9 4 2 7 35 7 74 l0 69 -32 0 c-17 0 -57 4 -87
10 -98 16 -212 30 -338 40 -160 12 -162 13 -152 88 15 108 14 107 110 104 46
-2 113 -7 149 -12 36 -5 129 -12 208 -16 l142 -7 0 65 0 66 -77 11 c-43 6
-134 16 -203 22 -242 21 -276 25 -288 33 -9 5 -12 53 -12 169 -1 89 -5 191
-10 227 -29 213 -77 400 -146 573 -56 139 -80 183 -200 367 l-49 75 -6 160
c-12 276 -51 498 -131 730 -36 106 -16 97 -216 93 l-177 -3 -85 -41 c-99 -48
-288 -160 -378 -226 -67 -49 -84 -52 -167 -27 -16 4 -68 14 -115 20 -47 6
-114 16 -150 21 -36 5 -164 12 -285 15 -248 6 -365 -3 -625 -48 -139 -24 -133
-25 -202 24 -134 95 -350 214 -448 247 -48 16 -86 20 -202 20 -79 0 -149 -4
-156 -9z"/>
<path d="M1961 2799 c-68 -34 -103 -73 -132 -149 -17 -45 -19 -78 -19 -330 0
-254 2 -284 20 -332 64 -171 231 -219 356 -104 77 71 84 106 84 440 0 264 -2
289 -21 341 -27 73 -62 113 -124 141 -66 31 -90 30 -164 -7z"/>
<path d="M3339 2803 c-60 -31 -111 -95 -129 -165 -7 -25 -10 -145 -8 -331 3
-275 4 -295 25 -339 41 -88 125 -148 208 -148 75 0 191 93 216 172 7 20 11
148 10 331 0 293 -1 299 -24 350 -29 63 -66 101 -129 133 -61 31 -102 30 -169
-3z"/>
<path d="M2543 1883 c-8 -3 -13 -25 -13 -58 0 -62 -12 -100 -43 -134 -26 -28
-106 -66 -177 -84 -69 -18 -78 -28 -58 -71 49 -101 193 -199 356 -242 168 -44
406 19 544 145 55 50 95 118 85 144 -3 7 -40 22 -82 32 -152 36 -205 85 -205
191 0 33 -5 65 -12 72 -9 9 -66 12 -198 11 -102 0 -191 -3 -197 -6z"/>
</g>
</svg>
